<svg width="400" height="400" xmlns="http://www.w3.org/2000/svg">
  <defs>
    <linearGradient id="grad1" x1="0%" y1="0%" x2="100%" y2="100%">
      <stop offset="0%" style="stop-color:yellow;stop-opacity:1" />
      <stop offset="100%" style="stop-color:lightgreen;stop-opacity:1" />
    </linearGradient>
  </defs>
  <g transform="translate(200,200)">
    <rect x="0" y="0" width="20" height="20" rx="10" ry="10" fill="url(#grad1)" transform="rotate(0 0 0)" />
    <rect x="0" y="0" width="40" height="40" rx="10" ry="10" fill="url(#grad1)" transform="rotate(36 0 0)" />
    <rect x="0" y="0" width="60" height="60" rx="10" ry="10" fill="url(#grad1)" transform="rotate(72 0 0)" />
    <rect x="0" y="0" width="80" height="80" rx="10" ry="10" fill="url(#grad1)" transform="rotate(108 0 0)" />
    <rect x="0" y="0" width="100" height="100" rx="10" ry="10" fill="url(#grad1)" transform="rotate(144 0 0)" />
    <rect x="0" y="0" width="120" height="120" rx="10" ry="10" fill="url(#grad1)" transform="rotate(180 0 0)" />
    <rect x="0" y="0" width="140" height="140" rx="10" ry="10" fill="url(#grad1)" transform="rotate(216 0 0)" />
    <rect x="0" y="0" width="160" height="160" rx="10" ry="10" fill="url(#grad1)" transform="rotate(252 0 0)" />
    <rect x="0" y="0" width="180" height="180" rx="10" ry="10" fill="url(#grad1)" transform="rotate(288 0 0)" />
    <rect x="0" y="0" width="200" height="200" rx="10" ry="10" fill="url(#grad1)" transform="rotate(324 0 0)" />
  </g>
</svg>
